<svg xmlns="http://www.w3.org/2000/svg" viewBox="0 0 143.298 140.757"><defs><style>.a{opacity:0.07;}</style></defs><path class="a" d="M6.933,50.693a26.253,26.253,0,0,0,12.521-2.752V24.867a2.209,2.209,0,1,1,4.418,0V49.948l-.618.644a24.4,24.4,0,0,0-6.677,17.1,24.772,24.772,0,0,0,24.789,24.69,2.785,2.785,0,0,0,.682-.1c2.019-.53,4.468-3.168,6.487-5.339a36.981,36.981,0,0,1,3.988-3.9V74.487a13.068,13.068,0,1,1,7.737-1.01,13,13,0,0,1-3.206,1.01v8.558a45.6,45.6,0,0,1,3.976,3.9c2.019,2.171,4.455,4.809,6.475,5.339a2.7,2.7,0,0,0,.682.1A24.763,24.763,0,0,0,92.974,67.7a24.387,24.387,0,0,0-6.664-17.1l-.606-.644V24.867a2.215,2.215,0,0,1,4.43,0V47.941a26.215,26.215,0,0,0,12.521,2.752C118.28,50.693,106.82,0,74.673,0H34.9C2.743,0-8.7,50.693,6.933,50.693ZM63.25,28.742h.1A4.323,4.323,0,0,1,66.507,35.9a4.281,4.281,0,0,1-3.168,1.489h-.1a4.329,4.329,0,0,1-4.329-4.166v-.164A4.361,4.361,0,0,1,63.25,28.742Zm-16.938,0a4.336,4.336,0,0,1,4.329,4.33v.164A4.338,4.338,0,0,1,46.312,37.4a4.347,4.347,0,0,1-4.329-4.33A4.336,4.336,0,0,1,46.312,28.742Z" transform="translate(0 68.959) rotate(-39)"/></svg>